REM DIRINDEX 1\2\6,1\2\7,1\2\8,1\2\9,1\3\10,1\3\11,1\4\12,1\4\13,1\4\14,1\5\15,1\5\16,1\5\17
REM DIRNAME cjc029,folder01,folder02,folder03,folder04,folder05,folder06,folder07,folder08,folder09,folder10,folder11,folder12,folder13,folder14,folder15,folder16
TITLE ""
FILE "1400_3_sec09_0833_0849.mp3" MP3
  TRACK 01 AUDIO
    TITLE "0:"
    INDEX 01 00:00:00
  TRACK 02 AUDIO
    TITLE "17:cjc029_6101"
    INDEX 01 00:00:15
  TRACK 03 AUDIO
    TITLE "0:"
    INDEX 01 00:02:32
  TRACK 04 AUDIO
    TITLE "16:cjc029_6102"
    INDEX 01 00:02:36
  TRACK 05 AUDIO
    TITLE "0:"
    INDEX 01 00:03:49
  TRACK 06 AUDIO
    TITLE "17:cjc029_6103"
    INDEX 01 00:04:35
  TRACK 07 AUDIO
    TITLE "0:"
    INDEX 01 00:05:28
  TRACK 08 AUDIO
    TITLE "16:cjc029_6104"
    INDEX 01 00:05:34
  TRACK 09 AUDIO
    TITLE "0:"
    INDEX 01 00:06:35
  TRACK 10 AUDIO
    TITLE "17:cjc029_6105"
    INDEX 01 00:07:17
  TRACK 11 AUDIO
    TITLE "0:"
    INDEX 01 00:08:36
  TRACK 12 AUDIO
    TITLE "16:cjc029_6106"
    INDEX 01 00:08:50
  TRACK 13 AUDIO
    TITLE "0:"
    INDEX 01 00:09:51
  TRACK 14 AUDIO
    TITLE "17:cjc029_6107"
    INDEX 01 00:10:35
  TRACK 15 AUDIO
    TITLE "0:"
    INDEX 01 00:11:66
  TRACK 16 AUDIO
    TITLE "16:cjc029_6108"
    INDEX 01 00:11:72
  TRACK 17 AUDIO
    TITLE "0:"
    INDEX 01 00:13:16
  TRACK 18 AUDIO
    TITLE "17:cjc029_6109"
    INDEX 01 00:14:00
  TRACK 19 AUDIO
    TITLE "0:"
    INDEX 01 00:15:11
  TRACK 20 AUDIO
    TITLE "16:cjc029_6110"
    INDEX 01 00:15:19
  TRACK 21 AUDIO
    TITLE "0:"
    INDEX 01 00:16:30
  TRACK 22 AUDIO
    TITLE "17:cjc029_6111"
    INDEX 01 00:17:14
  TRACK 23 AUDIO
    TITLE "0:"
    INDEX 01 00:19:20
  TRACK 24 AUDIO
    TITLE "16:cjc029_6112"
    INDEX 01 00:19:26
  TRACK 25 AUDIO
    TITLE "0:"
    INDEX 01 00:20:28
  TRACK 26 AUDIO
    TITLE "17:cjc029_6113"
    INDEX 01 00:21:11
  TRACK 27 AUDIO
    TITLE "0:"
    INDEX 01 00:22:42
  TRACK 28 AUDIO
    TITLE "16:cjc029_6114"
    INDEX 01 00:22:48
  TRACK 29 AUDIO
    TITLE "0:"
    INDEX 01 00:23:44
  TRACK 30 AUDIO
    TITLE "17:cjc029_6115"
    INDEX 01 00:24:29
  TRACK 31 AUDIO
    TITLE "0:"
    INDEX 01 00:25:56
  TRACK 32 AUDIO
    TITLE "16:cjc029_6116"
    INDEX 01 00:25:62
  TRACK 33 AUDIO
    TITLE "0:"
    INDEX 01 00:27:10
  TRACK 34 AUDIO
    TITLE "17:cjc029_6117"
    INDEX 01 00:27:71
  TRACK 35 AUDIO
    TITLE "0:"
    INDEX 01 00:29:58
  TRACK 36 AUDIO
    TITLE "16:cjc029_6118"
    INDEX 01 00:29:66
  TRACK 37 AUDIO
    TITLE "0:"
    INDEX 01 00:31:02
  TRACK 38 AUDIO
    TITLE "17:cjc029_6119"
    INDEX 01 00:31:61
  TRACK 39 AUDIO
    TITLE "0:"
    INDEX 01 00:33:13
  TRACK 40 AUDIO
    TITLE "16:cjc029_6120"
    INDEX 01 00:33:19
  TRACK 41 AUDIO
    TITLE "0:"
    INDEX 01 00:34:30
  TRACK 42 AUDIO
    TITLE "17:cjc029_6121"
    INDEX 01 00:35:15
  TRACK 43 AUDIO
    TITLE "0:"
    INDEX 01 00:36:40
  TRACK 44 AUDIO
    TITLE "16:cjc029_6122"
    INDEX 01 00:36:46
  TRACK 45 AUDIO
    TITLE "0:"
    INDEX 01 00:38:12
  TRACK 46 AUDIO
    TITLE "17:cjc029_6123"
    INDEX 01 00:38:71
  TRACK 47 AUDIO
    TITLE "0:"
    INDEX 01 00:41:12
  TRACK 48 AUDIO
    TITLE "16:cjc029_6124"
    INDEX 01 00:41:18
  TRACK 49 AUDIO
    TITLE "0:"
    INDEX 01 00:42:33
  TRACK 50 AUDIO
    TITLE "17:cjc029_6125"
    INDEX 01 00:43:21
  TRACK 51 AUDIO
    TITLE "0:"
    INDEX 01 00:45:35
  TRACK 52 AUDIO
    TITLE "16:cjc029_6126"
    INDEX 01 00:45:43
  TRACK 53 AUDIO
    TITLE "0:"
    INDEX 01 00:46:54
  TRACK 54 AUDIO
    TITLE "17:cjc029_6127"
    INDEX 01 00:47:38
  TRACK 55 AUDIO
    TITLE "0:"
    INDEX 01 00:48:30
  TRACK 56 AUDIO
    TITLE "16:cjc029_6128"
    INDEX 01 00:48:36
  TRACK 57 AUDIO
    TITLE "0:"
    INDEX 01 00:49:33
  TRACK 58 AUDIO
    TITLE "17:cjc029_6129"
    INDEX 01 00:50:17
  TRACK 59 AUDIO
    TITLE "0:"
    INDEX 01 00:52:12
  TRACK 60 AUDIO
    TITLE "16:cjc029_6130"
    INDEX 01 00:52:18
  TRACK 61 AUDIO
    TITLE "0:"
    INDEX 01 00:53:29
  TRACK 62 AUDIO
    TITLE "17:cjc029_6131"
    INDEX 01 00:54:15
  TRACK 63 AUDIO
    TITLE "0:"
    INDEX 01 00:55:10
  TRACK 64 AUDIO
    TITLE "16:cjc029_6132"
    INDEX 01 00:55:14
  TRACK 65 AUDIO
    TITLE "0:"
    INDEX 01 00:56:16
  TRACK 66 AUDIO
    TITLE "17:cjc029_6133"
    INDEX 01 00:57:03
  TRACK 67 AUDIO
    TITLE "0:"
    INDEX 01 00:57:74
  TRACK 68 AUDIO
    TITLE "16:cjc029_6134"
    INDEX 01 00:58:07
  TRACK 69 AUDIO
    TITLE "0:"
    INDEX 01 00:59:12
